<svg id="visual" viewBox="0 0 900 600" width="900" height="600" xmlns="http://www.w3.org/2000/svg" xmlns:xlink="http://www.w3.org/1999/xlink" version="1.1"><rect x="0" y="0" width="900" height="600" fill="#D84040"></rect><g transform="translate(569.525870150608 200.57979248253199)"><path d="M269.7 -465.2C271.5 -466.2 140.9 -236.1 164.3 -120C187.6 -4 364.8 -2 513.8 86C662.7 174 783.4 348 736.2 422.6C688.9 497.2 473.7 472.5 323 510.2C172.3 547.8 86.2 647.9 -8.2 662.2C-102.7 676.5 -205.3 605 -305.6 538.2C-406 471.5 -503.9 409.5 -640.1 320.6C-776.3 231.7 -950.6 115.8 -980.8 -17.4C-1011 -150.7 -896.9 -301.3 -713.5 -308.4C-530.1 -315.5 -277.3 -179 -146.8 -103.6C-16.3 -28.3 -8.2 -14.2 62.9 -123.1C134 -232.1 268 -464.2 269.7 -465.2" fill="#ff8080"></path></g></svg>