<svg width="141" height="142" viewBox="0 0 141 142" fill="none" xmlns="http://www.w3.org/2000/svg">
<rect width="141" height="142" rx="30" fill="#D84040"/>
<ellipse cx="39.5" cy="98" rx="31.5" ry="31" fill="#D9D9D9"/>
<ellipse cx="102.5" cy="36" rx="31.5" ry="31" fill="#D9D9D9"/>
<path d="M65 87C65 93.0751 60.0751 98 54 98C47.9249 98 43 93.0751 43 87C43 80.9249 47.9249 76 54 76C60.0751 76 65 80.9249 65 87Z" fill="#2B2A2A"/>
<path d="M129 25C129 31.0751 124.075 36 118 36C111.925 36 107 31.0751 107 25C107 18.9249 111.925 14 118 14C124.075 14 129 18.9249 129 25Z" fill="#2B2A2A"/>
</svg>
